# xmcd
#
# Track frame offsets: 
#        150
#        12940
#        31663
#        48841
#        70665
#        93051
#        114402
#        131252
#        155510
#        176774
#        197306
#        210206
#        229405
#        248387
#        262646
#
# Disc length: 3933 seconds
#
# Revision: 0
# Processed by: cddbd v1.5.2PL0 Copyright (c) Steve Scherf et al.
# Submitted via: ExactAudioCopyFreeDBPlugin 1.0
#
DISCID=a40f5b0f
DTITLE=KEM - Promise to Love: Album IV (Deluxe Edition)
DYEAR=2014
DGENRE=Soul
TTITLE0=Saving My Love For You
TTITLE1=Promise To Love
TTITLE2=Downtown (feat. Snoop Dogg)
TTITLE3=Beautiful World
TTITLE4=Do What You Gotta Do
TTITLE5=Say Something Real
TTITLE6=My Favorite Thing (feat. Ronald Isley)
TTITLE7=It's You
TTITLE8=The Soft Side Of Love
TTITLE9=Nobody
TTITLE10=Pray For Me
TTITLE11=Moments
TTITLE12=Don't Day Goodbye (feat. L'Renee)
TTITLE13=I Believe In Your Love
TTITLE14=In The Meantime
EXTD=
EXTT0=
EXTT1=
EXTT2=
EXTT3=
EXTT4=
EXTT5=
EXTT6=
EXTT7=
EXTT8=
EXTT9=
EXTT10=
EXTT11=
EXTT12=
EXTT13=
EXTT14=
PLAYORDER=
